<svg width="147" height="102" viewBox="0 0 147 102" fill="none" xmlns="http://www.w3.org/2000/svg">
<path d="M96.2102 66.8799L65.9844 12.8326L87.6987 0L125.284 66.8799H96.2102Z" fill="black"/>
<path d="M15.7031 59.3074L37.4174 46.3881L48.9066 66.8798H19.9168L15.7031 59.3074Z" fill="black"/>
<path d="M58.3164 101.36H64.4964V75.6373H58.3164V101.36Z" fill="black"/>
<path d="M135.763 101.967C128.853 101.967 124.695 98.2965 124.471 93.1229H130.988C130.988 94.7415 131.971 97.1115 136.185 97.1982C138.994 97.1982 140.314 95.4929 140.314 94.2212C140.145 92.1981 137.673 92.0246 135.033 91.5911C132.392 91.1576 130.145 90.6662 128.516 89.7992C126.437 88.7009 125.033 86.3309 125.033 83.6141C125.033 79.0186 128.909 75.377 135.37 75.377C141.634 75.377 145.595 78.7585 146.016 83.7875H139.724C139.668 82.4291 139.415 80.2903 135.707 80.2903C133.207 80.2903 131.55 80.8106 131.409 82.6025C131.409 85.2326 136.606 85.0592 140.651 86.1575C144.528 87.1691 147 89.6547 147 93.1229C147 99.5104 141.971 101.967 135.763 101.967Z" fill="black"/>
<path d="M41.1543 36.359L62.8686 23.4686L87.2234 66.8798H64.4978V73.2383H58.3179V66.8509L41.1543 36.359Z" fill="black"/>
<path d="M41.7158 101.967C34.5246 101.967 28.6816 95.9265 28.6816 88.6143C28.6816 81.2153 34.5246 75.377 41.7158 75.377C44.4407 75.377 46.9127 76.1285 49.0757 77.6603V66.8798H55.2557V101.36H49.0757V99.6549C46.9127 101.1 44.4407 101.967 41.7158 101.967ZM34.6088 88.6143C34.6088 92.6028 37.9236 95.9265 41.8844 95.9265C45.7609 95.9265 49.0757 92.6028 49.0757 88.6143C49.0757 84.6258 45.7609 81.2153 41.8844 81.2153C37.9236 81.2153 34.6088 84.6258 34.6088 88.6143Z" fill="black"/>
<path d="M87.3901 66.8798H93.4858V101.36H87.3901V99.6549C85.3114 101.1 82.7551 101.967 79.946 101.967C72.839 101.967 66.9961 95.9265 66.9961 88.6143C66.9961 81.2153 72.839 75.377 79.946 75.377C82.7551 75.377 85.2271 76.1285 87.3901 77.6603V66.8798ZM73.0076 88.6143C73.0076 92.6028 76.3223 95.9265 80.1146 95.9265C84.0754 95.9265 87.3901 92.6028 87.3901 88.6143C87.3901 84.6258 84.0754 81.2153 80.1146 81.2153C76.3223 81.2153 73.0076 84.6258 73.0076 88.6143Z" fill="black"/>
<path d="M108.514 101.967C101.435 101.967 95.5645 95.9264 95.5645 88.6142C95.5645 81.2152 101.435 75.377 108.514 75.377C111.239 75.377 113.795 76.1284 115.874 77.6602V75.6082H122.054V101.36H115.874V99.6549C113.795 101.1 111.323 101.967 108.514 101.967ZM101.576 88.6142C101.576 92.6027 104.891 95.9265 108.767 95.9265C112.644 95.9265 115.874 92.6027 115.874 88.6142C115.874 84.6257 112.644 81.2152 108.767 81.2152C104.891 81.2152 101.576 84.6257 101.576 88.6142Z" fill="black"/>
<path d="M5.95528 88.6142C5.95528 92.6027 9.27 95.9265 13.1466 95.9265C17.1074 95.9265 20.4221 92.6027 20.4221 88.6142C20.4221 84.6257 17.1074 81.2152 13.1466 81.2152C9.27 81.2152 5.95528 84.6257 5.95528 88.6142ZM12.978 101.967C5.871 101.967 0 95.9264 0 88.6142C0 81.2152 5.871 75.377 12.978 75.377C15.7028 75.377 18.2591 76.1284 20.4221 77.6602V75.6082H26.5178V101.36H20.4221V99.6549C18.3434 101.1 15.7871 101.967 12.978 101.967Z" fill="black"/>
</svg>
