<svg width="180" height="99" viewBox="0 0 180 99" fill="none" xmlns="http://www.w3.org/2000/svg">
<path d="M103.469 10.0346V0H96.9675V10.0346H90.4655V0H83.9636V10.0346H80.6005C78.919 10.0346 77.4617 8.65051 77.4617 6.80507V0H70.9597V7.15109C70.9597 12.4567 75.1075 16.609 80.1521 16.609H96.8554V23.4141C96.8554 25.1442 95.5101 26.6436 93.7165 26.6436H67.4845C65.803 26.6436 64.3457 25.2595 64.3457 23.4141V23.2987H57.8438V23.7601C57.8438 26.0669 58.6285 28.2583 60.0858 29.8731C58.6285 31.6032 57.8438 33.7947 57.8438 35.9861V56.5167H64.3457V43.3679C64.3457 41.5225 65.803 40.023 67.5966 40.023C69.3903 40.023 70.8476 41.5225 70.8476 43.3679V56.7474H77.3496V43.3679C77.3496 41.5225 78.8069 40.023 80.6005 40.023C82.3942 40.023 83.8515 41.5225 83.8515 43.3679V56.7474H90.3534V43.3679C90.3534 41.5225 91.8107 40.023 93.6044 40.023C95.398 40.023 96.8554 41.5225 96.8554 43.3679V56.7474H103.357V33.4487V26.7589V19.9539C103.357 18.2237 104.703 16.7243 106.496 16.7243H109.971V10.0346H103.469Z" fill="black"/>
<path d="M17.2638 97.3472L5.94142 84.3138V97.4625H0V68.9735H5.94142V81.5456L16.5911 68.9735H23.8778L11.7707 82.9297L24.3262 97.3472H17.2638Z" fill="black"/>
<path d="M52.5751 68.9735V97.3472H46.6337V93.3102C44.3916 96.5398 40.8044 98.2699 36.9929 98.1545C29.482 98.1545 23.3164 91.5801 23.3164 83.2756C23.3164 74.9712 29.5941 68.2814 36.9929 68.2814C40.8044 68.1661 44.3916 69.8962 46.6337 73.0104V68.9735H52.5751ZM46.6337 83.1603C46.8579 78.316 43.1585 74.2791 38.4502 74.0484C38.3381 74.0484 38.1139 74.0484 38.0018 74.0484C33.0693 74.0484 29.1457 78.0853 29.1457 83.1603C29.1457 88.2353 33.0693 92.2722 38.0018 92.2722C42.7101 92.3875 46.6337 88.5813 46.7458 83.737C46.6337 83.5063 46.6337 83.391 46.6337 83.1603Z" fill="black"/>
<path d="M72.5296 68.5121V75.2018C68.606 74.9711 64.0098 76.8166 64.0098 83.1603V97.4625H58.0684V68.9734H64.0098V73.8177C65.6913 69.8962 69.0544 68.5121 72.5296 68.5121Z" fill="black"/>
<path d="M103.472 68.9735V97.3472H97.5302V93.3102C95.2881 96.5398 91.7009 98.2699 87.8894 98.1545C80.3785 98.1545 74.2129 91.5801 74.2129 83.2756C74.2129 74.9712 80.4906 68.2814 87.8894 68.2814C91.7009 68.1661 95.2881 69.8962 97.5302 73.0104V68.9735H103.472ZM97.5302 83.1603C97.4181 78.2007 93.4945 74.2791 88.6741 74.2791C83.8537 74.2791 80.0422 78.4314 80.0422 83.391C80.1543 88.3506 83.9658 92.2722 88.7862 92.2722C93.4945 92.3875 97.4181 88.5813 97.5302 83.737C97.5302 83.5063 97.5302 83.391 97.5302 83.1603Z" fill="black"/>
<path d="M107.506 83.1603C107.282 75.0865 113.559 68.3967 121.407 68.1661C121.631 68.1661 121.855 68.1661 122.079 68.1661C127.236 68.0507 131.944 70.8189 134.41 75.4325L129.254 78.5467C127.908 75.7785 125.106 74.0484 122.079 74.1638C117.259 74.1638 113.447 78.2007 113.447 83.045C113.447 88.0046 117.371 91.9261 122.079 91.9261C125.106 92.0415 128.021 90.3114 129.478 87.5432L134.635 90.6574C132.168 95.271 127.348 98.1545 122.191 98.0392C114.344 98.2699 107.842 91.8108 107.618 83.6217C107.506 83.6217 107.506 83.391 107.506 83.1603Z" fill="black"/>
<path d="M166.136 68.9735V97.3472H160.195V93.3102C157.953 96.5398 154.366 98.2699 150.554 98.1545C143.043 98.1545 136.766 91.5801 136.766 83.2756C136.766 74.9712 143.043 68.2814 150.554 68.2814C154.366 68.1661 157.953 69.8962 160.195 73.0104V68.9735H166.136ZM160.195 83.1603C160.083 78.2007 156.159 74.2791 151.339 74.2791C146.519 74.3945 142.707 78.4314 142.707 83.391C142.819 88.3506 146.631 92.2722 151.451 92.2722C156.159 92.3875 160.083 88.5813 160.195 83.737C160.195 83.5063 160.195 83.391 160.195 83.1603Z" fill="black"/>
<path d="M172.076 73.0103C172.076 70.8188 173.758 69.0887 175.888 69.0887C178.018 69.0887 179.699 70.8188 179.699 73.0103C179.699 75.2018 178.018 76.9319 175.888 76.9319C173.87 76.9319 172.076 75.2018 172.076 73.0103ZM178.914 73.0103C178.914 71.2802 177.457 70.0115 175.888 70.0115C174.318 70.0115 172.973 71.5109 172.973 73.1257C172.973 74.8558 174.318 76.1245 176 76.1245C177.681 76.1245 178.914 74.7404 179.027 73.1257C178.914 73.1257 178.914 73.0103 178.914 73.0103Z" fill="black"/>
<path d="M175.889 73.5871H175.216V75.0865H174.432V70.7036H176.113C176.898 70.7036 177.571 71.3957 177.571 72.0877C177.571 72.6644 177.234 73.1258 176.786 73.3564L177.683 74.9712H176.786L175.889 73.5871ZM175.328 72.8951H176.225C176.562 72.8951 176.786 72.5491 176.786 72.203C176.786 71.857 176.562 71.6263 176.225 71.6263H175.328V72.8951Z" fill="black"/>
</svg>
