<svg width="180" height="97" viewBox="0 0 180 97" fill="none" xmlns="http://www.w3.org/2000/svg">
<path fill-rule="evenodd" clip-rule="evenodd" d="M30.1698 59.2316C28.7384 59.2316 27.6178 60.2619 27.6178 61.7652C27.6178 63.2696 28.7442 64.2939 30.1698 64.2939C31.5944 64.2939 32.7217 63.2626 32.7217 61.7652C32.7217 60.2619 31.6001 59.2316 30.1698 59.2316ZM30.1698 63.5694C29.1492 63.5694 28.3921 62.8024 28.3921 61.7652C28.3921 60.729 29.1434 59.9561 30.1698 59.9561C31.1836 59.9561 31.9464 60.7409 31.9464 61.7652C31.9464 62.7836 31.1769 63.5694 30.1698 63.5694ZM55.0016 50.3698H42.5785L43.9906 28.153L35.923 50.3698H24.3867L42.691 0.153442H54.9661L53.5491 22.675L61.7697 0.153442H73.3069L55.0016 50.3698ZM56.5003 50.3698L74.8037 0.153442H86.3399L68.0366 50.3698H56.5003Z" fill="black"/>
<path fill-rule="evenodd" clip-rule="evenodd" d="M23.0579 33.061C6.93716 52.5393 -8.26978 78.4565 5.16243 90.3913C18.1781 101.957 34.447 95.1092 45.5398 90.5437C56.6327 85.9783 179.241 31.1964 179.241 31.1964C180.425 30.5877 180.203 29.8266 178.724 30.2067C178.128 30.3601 45.2445 67.4125 45.2445 67.4125C28.3821 72.2828 9.15534 61.6683 23.0579 33.061Z" fill="black"/>
<path fill-rule="evenodd" clip-rule="evenodd" d="M30.6044 61.9433C30.9623 61.9255 31.2422 61.7355 31.2422 61.2258C31.2422 60.5686 30.8247 60.4034 30.1273 60.4034H29.125V63.128H29.7935V61.9681H29.9061L30.515 63.128H31.2835L30.6044 61.9433ZM30.1754 61.5019H29.7945V60.8695H30.1158C30.313 60.8695 30.539 60.8933 30.539 61.1575C30.539 61.4406 30.4082 61.5019 30.1754 61.5019ZM146.136 0C144.705 0 143.584 1.03126 143.584 2.53363C143.584 4.03698 144.712 5.06132 146.136 5.06132C147.561 5.06132 148.688 4.03006 148.688 2.53363C148.689 1.03126 147.569 0 146.136 0ZM146.136 4.33884C145.116 4.33884 144.359 3.57183 144.359 2.53462C144.359 1.49841 145.11 0.725448 146.136 0.725448C147.15 0.725448 147.914 1.51028 147.914 2.53462C147.914 3.55302 147.144 4.33884 146.136 4.33884Z" fill="black"/>
<path fill-rule="evenodd" clip-rule="evenodd" d="M146.573 2.71182C146.931 2.694 147.211 2.50398 147.211 1.99428C147.211 1.33712 146.793 1.17184 146.097 1.17184H145.094V3.8955H145.762V2.73656H145.875L146.483 3.8955H147.253L146.573 2.71182ZM146.143 2.27041H145.762V1.63799H146.084C146.28 1.63799 146.507 1.66273 146.507 1.92698C146.507 2.20905 146.376 2.27041 146.143 2.27041ZM138.536 8.52333L141.636 0.153442H106.436L94.3494 15.2187L99.9294 0.153442H88.245L70.0879 50.3698H81.6242L89.3762 29.3704L89.9072 50.3698L125.305 50.2906L128.674 40.6312H115.216L119.638 28.4579H130.73L134.143 19.0993H123.051L126.853 8.52333H138.536ZM101.352 47.0217L100.612 20.8491L118.055 1.14512L101.352 47.0217Z" fill="black"/>
</svg>
