<svg width="172" height="89" viewBox="0 0 172 89" fill="none" xmlns="http://www.w3.org/2000/svg">
<path d="M92.5486 0.298549C91.9869 0.387703 91.4468 2.51602 90.361 3.62476C89.567 4.42495 88.5759 4.37489 88.0494 5.36415C87.8495 5.73373 87.9143 6.36459 87.6875 6.97032C87.2445 8.18177 85.6836 8.29007 85.6836 9.61003C85.6782 11.0355 86.9853 11.3077 88.1168 12.3191C89 13.1333 89.0865 13.6945 90.1558 14.0891C91.0688 14.4088 92.4271 13.3639 93.6505 13.739C94.6552 14.0476 95.6165 14.2698 95.8435 15.3312C96.0432 16.3093 95.8299 17.8263 94.612 17.6514C94.2014 17.6041 92.4217 16.9872 90.2343 17.2262C87.5956 17.5347 84.5843 18.4209 84.29 21.4471C84.128 23.1392 86.1615 25.1343 88.125 24.7287C89.4833 24.4534 88.8407 22.806 89.5806 22.0056C90.55 20.9804 96.0432 25.5845 101.15 25.5845C103.3 25.5845 104.899 25.026 106.487 23.3144C106.635 23.1837 106.816 22.9031 107.046 22.8863C107.262 22.9031 107.64 23.1225 107.764 23.217C111.877 26.618 114.986 33.4398 130.101 33.5204C132.227 33.5313 134.649 34.5763 136.626 36.4323C138.39 38.1107 139.421 40.7197 140.423 43.3678C141.935 47.3414 144.647 51.2065 148.757 55.5078C148.981 55.7384 152.365 58.4449 152.635 58.6477C152.679 58.6755 152.927 59.2868 152.841 59.6284C152.741 62.2071 152.376 69.7066 157.81 70.0457C159.139 70.1151 158.79 69.1537 158.79 68.4924C158.788 67.1864 158.555 65.8887 159.225 64.5522C160.14 62.7129 157.283 61.8653 157.367 57.889C157.426 54.9242 155.007 55.4298 153.778 53.1709C153.07 51.8621 152.441 51.1676 152.487 49.5668C152.762 40.5587 150.623 34.6401 149.557 33.1869C148.725 32.0893 148.036 31.6531 148.798 31.1445C153.332 28.063 154.361 25.1954 154.361 25.1954C156.773 19.3631 158.941 14.0362 161.931 11.6913C162.533 11.2076 164.078 10.0213 165.026 9.55438C167.816 8.20112 169.285 7.38158 170.095 6.57002C171.378 5.28358 172.391 2.60218 171.162 0.976676C169.633 -1.02958 166.989 0.56262 165.823 1.27385C157.486 6.36459 156.257 15.345 153.37 20.5023C151.066 24.6229 147.321 27.649 143.972 27.8963C141.46 28.088 138.754 27.5656 136.059 26.3486C129.504 23.3921 125.918 19.5743 125.073 18.8992C123.312 17.5014 109.641 3.69417 98.5656 3.13013C98.5656 3.13013 97.1912 0.298749 96.8453 0.251479C96.035 0.145772 95.2061 1.9436 94.612 2.15223C94.0529 2.3437 93.1131 0.204011 92.5486 0.298549ZM43.7911 82.7053C42.7486 82.6802 41.8629 81.7994 41.8629 80.7102L41.8656 45.1656H30.4796V84.3473C30.4796 86.2674 31.9918 87.8347 33.8472 87.8347H53.7484C55.6171 87.8347 57.1107 86.2674 57.1107 84.3473V45.1656H45.7356L45.7248 80.7102C45.7248 81.7994 44.8389 82.6802 43.7911 82.7053ZM81.9134 45.1656H64.6806C62.6417 45.1656 60.9808 46.8717 60.9808 48.9918V87.8345H72.3772V52.2041C72.3853 51.1122 73.2441 50.248 74.3029 50.248C75.3669 50.248 76.2203 51.0926 76.2445 52.1736V87.8347H87.5954V52.1732C87.609 51.0924 88.4623 50.2478 89.5236 50.2478C90.577 50.2478 91.4466 51.112 91.4547 52.204V87.8347H102.851V48.9918C102.851 46.8717 101.188 45.1656 99.1489 45.1656H81.9134ZM15.2424 52.2789C15.2506 51.0924 14.3108 50.2478 13.3142 50.2478H11.3805V71.8295H13.3142C14.3189 71.8295 15.2508 71.007 15.2424 69.8263V52.2789ZM22.8826 77.1117H11.3805V87.8347H0V45.1656H22.9557C25.0107 45.1656 26.6148 46.8829 26.6148 49.0086V73.269C26.6148 75.3975 24.9487 77.1117 22.8826 77.1117ZM141.906 78.2927C139.618 78.2927 137.698 80.3267 137.698 82.7914C137.698 85.2644 139.618 87.2816 141.979 87.2816C144.32 87.2816 146.216 85.2644 146.216 82.7914C146.216 80.3211 144.32 78.2927 141.978 78.2927H141.906ZM147.032 82.7775C147.032 85.6755 144.774 88.032 141.979 88.032C139.154 88.032 136.885 85.6924 136.885 82.7775C136.885 79.9182 139.154 77.5286 141.895 77.5286C144.774 77.5286 147.032 79.8462 147.032 82.7775Z" fill="black"/>
<path d="M141.452 82.4441C142.244 82.4441 142.66 82.1551 142.66 81.5773C142.66 81.0631 142.257 80.7992 141.487 80.7992H141.261V82.4441H141.452ZM144.367 85.8173H143.008L141.261 83.4249V85.8173H140.151V79.7683H141.317C142.903 79.7683 143.745 80.3852 143.745 81.5633C143.745 82.3495 143.248 83.0472 142.554 83.2554L142.473 83.2861L144.367 85.8173ZM121.959 71.838V52.1902C121.932 51.1036 121.081 50.2701 120.02 50.2701C118.969 50.2701 118.1 51.137 118.092 52.2208V71.838H121.959ZM121.959 87.8348V77.123H118.092V87.8348H106.717V48.9919C106.717 46.8717 108.378 45.1656 110.417 45.1656H129.634C131.679 45.1656 133.34 46.8717 133.34 48.9919V87.8346L121.959 87.8348Z" fill="black"/>
</svg>
