<svg width="208" height="107" viewBox="0 0 208 107" fill="none" xmlns="http://www.w3.org/2000/svg">
<path fill-rule="evenodd" clip-rule="evenodd" d="M71.1023 95.315L44.8598 82.1305C44.2829 81.8234 43.9856 81.0382 43.9968 80.5244L44.0664 73.2458C44.0765 72.7332 44.1752 72.2067 44.8295 71.724C47.6349 69.8836 56.323 64.9361 65.2983 51.4584C77.2519 33.5077 65.2983 18.4262 46.616 22.532C30.0232 26.1782 13.1308 35.422 5.80399 40.448C-0.72606 44.9267 0.180673 50.3384 0 55.1912C0.362469 57.243 1.08853 57.0571 2.72132 55.0042C14.8736 43.4338 33.3752 34.6623 36.8215 33.1694C40.2677 31.6765 48.4306 26.6378 58.0444 28.8766C67.279 31.0287 65.0346 43.9465 62.2156 49.4055C59.1318 55.3771 50.3349 64.0551 46.3444 66.2015C44.8283 67.0167 44.2594 66.2015 44.2594 64.8945L44.8945 36.8075C44.8945 34.9417 44.0776 34.1011 42.2641 34.7547L39.3621 36.2476C37.3669 37.4611 37.4578 37.9275 37.276 39.4204L36.8361 71.8002C36.8215 72.4988 36.505 73.0599 36.1313 73.225L26.6645 78.7036C24.4885 79.8236 25.0317 81.5036 26.6645 82.0635L34.2831 85.7952C36.0976 86.5411 36.6419 87.1011 36.6419 88.9669L36.3692 104.644C43.172 103.245 43.6242 99.8849 43.806 97.645V92.8857C43.9867 91.7657 44.6218 91.3928 45.5286 91.5798L67.6571 102.59C69.6524 103.524 70.7409 103.149 72.1919 100.538C73.6418 97.9279 73.8236 96.622 71.1023 95.315ZM109.774 55.7616C106.699 57.5882 105.276 61.007 106.488 63.1649C107.698 65.324 111.357 65.6866 114.434 63.8577C117.511 62.0299 118.842 58.7047 117.63 56.5467C116.42 54.3888 112.851 53.9327 109.774 55.7616Z" fill="black"/>
<path fill-rule="evenodd" clip-rule="evenodd" d="M98.427 58.0847C97.591 59.133 95.9784 62.3313 95.0717 64.2907C94.1649 66.2489 92.2606 70.6814 90.3562 70.6814C88.343 70.6814 88.0883 65.5503 88.0883 63.6833C88.0883 61.8163 86.9997 61.5369 86.4555 61.6305C85.9112 61.724 84.3693 62.2828 83.9159 64.2433C83.4626 66.2027 81.0139 74.6948 78.2926 74.6948C76.57 74.6948 75.2997 69.5626 75.21 67.9762C75.1191 66.3909 74.393 65.0839 72.8511 65.0839C71.7626 65.0839 70.4025 65.6439 69.8582 66.2974C69.3139 66.9509 69.2242 67.9762 66.321 67.3238C63.6906 67.2303 61.1511 68.6308 58.0684 73.949C56.2123 77.1507 54.7041 83.1177 57.5242 85.5193C60.1546 87.7581 64.7791 83.7458 66.1404 82.0658C67.5005 80.3871 68.6799 79.1736 69.2242 78.2418C69.7673 77.3077 70.3127 77.4012 70.5843 78.3342C70.8558 79.2682 72.3977 82.9064 74.3941 82.814C76.3894 82.7205 78.9289 81.1341 81.9218 75.7213C82.4661 74.6013 83.2819 74.6948 83.4637 75.6278C83.6455 76.5618 84.8238 79.6412 86.8191 79.6412C88.7234 79.6412 90.8421 76.5284 91.8981 74.696C92.6231 73.4363 93.7116 74.0436 93.7116 75.256C93.7116 76.4683 93.1673 105.115 93.1673 105.115C93.1673 106.421 93.6656 106.794 94.5723 106.794H98.5179C99.2429 106.794 99.878 106.142 99.878 105.115L100.694 58.692C100.695 57.5709 99.4707 56.7788 98.427 58.0847ZM67.5925 76.3736C66.7755 77.7742 64.5996 81.5059 62.6952 80.8535C61.6976 80.2935 63.0274 76.5607 63.6929 75.2548C64.6905 73.2955 67.6149 70.1746 68.9526 70.962C70.2229 71.7079 68.4083 74.9743 67.5925 76.3736ZM205.779 47.7532C205.417 48.08 204.827 48.64 203.512 48.0326C201.244 47.0997 201.063 42.7145 199.885 38.7011C198.824 35.0964 196.272 35.3227 195.35 36.975L192.584 41.5472C192.084 42.4801 190.997 44.6265 189.907 44.6265C188.638 44.6265 189.206 42.7595 189.274 40.8937C189.318 39.634 188.547 38.0487 187.278 38.0487C185.827 38.0487 184.286 40.3337 183.107 42.9477C182.283 44.7755 180.159 51.7655 177.482 51.7655C175.76 51.7655 175.578 46.6333 175.488 45.0468C175.398 43.4604 174.853 41.501 173.312 41.501C172.269 41.501 171.59 42.0598 171.044 42.7134C170.501 43.3669 170.411 43.9257 168.506 43.6463C165.875 43.5528 161.522 46.0733 158.439 51.3914C156.583 54.5931 154.348 61.3072 157.169 63.7087C159.8 65.9475 164.514 60.7218 165.875 59.043C167.234 57.363 168.414 56.1495 168.959 55.2178C169.502 54.2837 170.047 54.3772 170.318 55.3113C170.59 56.2442 172.133 59.8835 174.128 59.79C176.124 59.6965 177.755 59.23 180.749 53.8172C181.292 52.6984 182.29 52.5587 182.472 53.4916C182.653 54.4245 182.835 56.8977 184.74 56.8977C188.003 56.8977 191.703 48.7242 192.63 46.8191C193.446 45.1392 194.76 45.6057 195.214 46.8653C195.863 48.6688 196.437 54.4707 199.975 54.4707C203.512 54.4707 205.914 50.5982 206.639 49.3847C207.457 48.1735 207.032 46.6252 205.779 47.7532ZM167.325 53.3519C166.51 54.7513 164.695 57.8306 162.791 57.1771C161.793 56.6171 163.032 53.9119 163.698 52.6049C164.696 50.6455 167.619 47.4796 168.959 48.2659C170.227 49.0129 168.141 51.9514 167.325 53.3519ZM149.805 48.461C149.805 48.461 142.096 42.6753 139.919 40.0635C138.457 38.3085 139.466 36.9842 140.372 36.2383C145.813 32.5055 154.338 26.7197 157.695 17.7623C160.928 9.12814 155.88 1.61972 152.252 0.406225C147.281 -1.25526 136.743 2.08618 131.482 12.1636C128.077 18.6906 126.497 20.8416 126.042 38.5706C125.954 41.9282 125.86 45.7558 125.86 49.9551C125.86 54.1544 125.407 65.5376 124.952 67.6829C123.23 72.7216 128.4 69.7358 130.756 67.7776C133.115 65.8171 132.932 62.8786 132.932 61.6189C132.932 60.0313 133.024 32.039 133.84 25.7868C134.349 21.8981 134.93 14.683 138.918 8.43075C142.91 2.17855 146.99 4.69906 148.08 5.72435C149.167 6.7508 150.71 9.36367 149.892 14.683C148.625 22.9372 139.371 31.9455 137.013 34.7443C134.656 37.543 135.2 39.97 136.561 41.9294C137.528 43.323 139.917 46.0352 142.365 48.5545C144.814 51.0739 144.541 53.3138 144.18 54.9938C142.909 60.0313 129.668 73.6557 129.668 73.6557C126.856 76.735 129.758 81.7737 130.755 83.4525C131.755 85.1325 133.023 84.5737 133.839 83.1731C137.105 76.9221 151.161 61.8048 151.161 61.8048C155.247 56.4855 153.522 51.3533 149.805 48.461Z" fill="black"/>
</svg>
