<svg
  width="116"
  height="113"
  viewBox="0 0 116 113"
  fill="none"
  xmlns="http://www.w3.org/2000/svg"
>
  <g id="g3133">
    <path
      id="path3135"
      d="M50.9073 110.681C53.2313 111.579 55.7057 112.03 58.1877 112.034C60.6698 112.034 63.1519 111.591 65.4836 110.693C92.293 95.2993 114.277 57.3707 115.691 26.6108C114.138 1.55895 76.5643 -0.0674973 58.2032 0.0442734C40.2197 -0.0674973 2.23337 2.10624 0.714844 26.6224C2.13702 57.3707 24.1095 95.2839 50.9073 110.681Z"
      fill="#FB255B"
    />
    <g id="g3137">
      <g id="g3141">
        <path
          id="path3143"
          d="M57.995 86.5588L58.1299 86.4085C70.2126 73.1734 79.6398 62.8443 91.7225 49.6131C95.4611 45.52 97.9778 43.3154 94.4628 39.0412L87.14 30.142L69.1913 25.5016H57.995H46.8026L28.8539 30.142C26.102 33.4835 24.1402 35.8654 21.3922 39.2069C18.7791 42.375 21.1841 46.1097 23.9514 49.1429L57.8639 86.4085L57.995 86.5588Z"
          fill="white"
        />
        <g id="g3145">
          <path
            id="path3147"
            d="M86.7059 31.6756C82.8672 34.3542 78.0649 35.5182 73.1895 36.5472C75.7178 36.3237 77.0359 36.2081 79.568 35.9807C81.2176 35.8342 82.4895 35.6261 83.6457 36.7978L89.2304 42.4248C88.0973 40.3705 86.9641 38.3124 85.831 36.2543C85.1257 34.9709 85.1026 35.0056 85.7385 33.6875C86.0623 33.0207 86.386 32.3462 86.7059 31.6756Z"
            fill="#FC255C"
          />
          <g id="g3149">
            <path
              id="path3151"
              d="M27.8555 47.7764C30.8424 48.4393 31.3203 48.5433 34.3073 49.2063C36.2691 49.6379 39.3716 49.2255 40.2542 47.4257L43.4532 40.9044C43.1757 45.356 40.7745 50.7441 45.8928 51.7693L55.2969 55.053C51.2038 54.7292 47.4538 53.6308 45.7541 54.6021C43.7538 55.739 44.9563 57.6198 45.5537 59.0073L53.9364 78.436C48.61 68.6966 43.9619 61.1965 37.275 54.8179C34.554 52.2279 31.3743 50.4126 27.8555 47.7764Z"
              fill="#FC255C"
            />
            <g id="g3153">
              <path
                id="path3155"
                d="M29.2862 31.6756C32.6123 34.0845 37.6805 35.337 42.8065 36.5472C40.2127 36.3199 37.6188 36.0886 35.0288 35.8574C33.4217 35.7148 33.4255 35.7148 32.2847 36.8633L26.7617 42.4248C27.9719 40.2279 29.1783 38.0272 30.3923 35.8265C30.8818 34.9439 30.8664 34.9786 30.4347 34.069C30.0493 33.2712 29.6639 32.4773 29.2862 31.6756Z"
                fill="#FC255C"
              />
              <g id="g3157">
                <path
                  id="path3159"
                  d="M58.0998 49.5874L57.9803 50.0962L57.8878 49.5874C57.3945 47.2711 56.8973 44.9509 56.4001 42.6346C55.822 39.9136 56.0456 39.9714 53.3901 39.1659C51.0622 38.4567 48.7381 37.7514 46.4141 37.0499C54.1339 38.3835 61.8537 38.3835 69.5736 37.0499C58.9015 40.2874 60.4354 38.6533 58.0998 49.5874Z"
                  fill="#FC255C"
                />
                <g id="g3161">
                  <path
                    id="path3163"
                    d="M88.9903 47.7766C85.9995 48.4395 85.5293 48.5436 82.5385 49.2065C80.5768 49.6382 77.4742 49.2258 76.5916 47.4259L73.3965 40.9047C73.6701 45.3562 76.0751 50.7443 70.9568 51.7695L61.5527 55.0532C65.642 54.7295 69.392 53.6311 71.0917 54.6023C73.092 55.7393 71.8895 57.6201 71.2921 59.0076L62.9094 78.4363C68.2358 68.6969 72.8878 61.1967 79.5708 54.8181C82.2918 52.2281 85.4715 50.4128 88.9903 47.7766Z"
                    fill="#FC255C"
                  />
                </g>
              </g>
            </g>
          </g>
        </g>
      </g>
    </g>
  </g>
</svg>
