<svg
  width="98"
  height="113"
  viewBox="0 0 98 113"
  fill="none"
  xmlns="http://www.w3.org/2000/svg"
>
  <g id="Layer">
    <path
      id="Layer_2"
      d="M48.6896 112.107C48.6896 112.107 0.210938 97.7766 0.210938 27.0987V0.0395508H97.1849V27.0987C97.1849 95.2495 48.6896 112.107 48.6896 112.107Z"
      fill="#4FB84F"
    />
    <path
      id="Layer_3"
      d="M97.185 6.69482V27.0988C97.185 95.2496 49.6609 112.472 48.6898 112.138C47.7187 111.805 46.7584 111.442 45.8089 111.05C44.8602 110.658 43.9229 110.238 42.9993 109.789C42.075 109.341 41.1651 108.864 40.2704 108.361C39.3756 107.858 38.4959 107.327 37.6328 106.77V77.1372H56.2029C73.5493 77.1055 76.6857 67.9233 76.6857 56.5438V49.7634H37.6328V27.3033H76.6857C92.1504 27.0988 97.185 18.0894 97.185 6.69482Z"
      fill="#045433"
    />
  </g>
</svg>
