<svg
  width="119"
  height="112"
  viewBox="0 0 119 112"
  fill="none"
  xmlns="http://www.w3.org/2000/svg"
>
  <path
    fill-rule="evenodd"
    clip-rule="evenodd"
    d="M37.9869 23.383H24.7217V35.9592L3.53167 56.0251L24.7217 76.0953V88.5853H37.9869L42.8968 93.2368L59.2631 108.656L75.5432 93.2411L80.5392 88.5896H93.7184V76.0996L98.7144 71.4481L114.995 56.0294L98.7144 40.6106L93.7184 35.9592V23.383H80.5392L75.5432 18.7315L59.2631 3.3128L37.9869 23.383ZM19.8118 18.7315H39.4513L59.2631 0.0395508L79.0749 18.7315H98.7144V37.2513L118.526 56.0265L98.7144 74.7185V93.2382H79.0749L59.2631 111.93L39.4513 93.2382H19.8118V74.7185L0 56.0265L19.8118 37.2484V18.7287V18.7315ZM10.4227 56.0265L59.2631 9.94257L108.017 56.0265L59.2631 102.11L10.4227 56.0265Z"
    fill="#006D58"
  />
  <path
    fill-rule="evenodd"
    clip-rule="evenodd"
    d="M93.7179 42.5058C88.274 48.8226 80.9121 53.4138 72.9586 55.8572C68.6446 57.1407 65.0368 57.6259 60.5547 57.8384C56.9628 57.7882 53.2373 58.3466 50.0459 60.078C44.289 63.0526 40.2017 68.6703 39.8816 75.2383C39.3705 88.6299 51.1025 92.331 59.2627 102.113L73.5616 88.5897L93.7179 69.4671L108.017 56.0295L93.7179 42.5058ZM24.7212 69.4671C30.0475 63.5766 36.8696 58.9683 44.4469 56.5463C52.7707 53.1798 59.8427 55.3519 66.7567 52.6701C72.4748 50.5454 76.9497 45.4489 78.2992 39.491C80.8948 24.859 68.3833 19.751 59.2627 9.94557L44.9637 23.3831L24.7212 42.5029L10.4223 56.0266L24.7212 69.4642V69.4671ZM3.53125 56.0266L24.7212 35.9564V23.3803H37.9865L59.2627 3.31006L80.5388 23.3803H93.7179V35.9564L114.994 56.0266L93.7179 76.0968V88.5869H80.5388L59.2627 108.657L37.9865 88.5869H24.7212V76.0968L3.53125 56.0295V56.0266Z"
    fill="#F1A400"
  />
</svg>
