<svg
  width="171"
  height="112"
  viewBox="0 0 171 112"
  fill="none"
  xmlns="http://www.w3.org/2000/svg"
>
  <path
    id="Vector"
    d="M111.107 105.501V111.905H103.279V80.3443H111.107V94.6827L123.661 80.3443H132.923L120.925 94.1752L133.943 111.905H124.399L115.601 100.301L111.107 105.501ZM97.7512 111.905H91.6812L76.5812 94.5934V111.905H68.753V80.3443H74.7302L89.9194 98.1208V80.3443H97.7476V111.905H97.7512ZM41.5915 106.476L39.5052 111.905H31.1706L44.5587 80.1585H52.016L65.3542 111.905H57.066L54.9333 106.476H41.5915ZM48.2606 89.304L44.1842 99.7933H52.337L48.2606 89.304ZM30.4145 103.131C30.4145 108.378 26.199 111.902 19.1127 111.902H2.61819V80.3408H18.1818C24.99 80.3408 29.02 83.5894 29.02 88.7429C29.02 91.6664 27.3973 94.6827 24.6191 95.6584C28.4708 96.4947 30.4145 99.7433 30.4145 103.131ZM10.4464 93.1995H16.9764C19.8973 93.1995 21.52 91.8558 21.52 89.8115C21.52 87.8137 19.9864 86.7487 16.9764 86.7487H10.4464V93.1995ZM18.0927 105.408C21.2881 105.408 22.7254 103.971 22.7254 102.113C22.7254 100.165 21.1027 99.1894 18.2318 99.1894H10.4464V105.408H18.0927ZM51.5809 25.0602C52.6401 28.2123 55.5432 30.471 58.9669 30.471C62.3906 30.471 65.2936 28.2123 66.3493 25.0602H51.5809ZM58.9704 0.0395508C46.5345 0.0395508 36.4524 9.66397 36.4524 21.5399C36.4524 25.7249 37.7077 29.6347 39.8761 32.937H50.7357C47.4404 30.4389 45.3005 26.4826 45.3005 22.0188C45.3005 14.453 51.4204 8.3202 58.9704 8.3202C66.5204 8.3202 72.6403 14.453 72.6403 22.0188C72.6403 26.4826 70.5005 30.4389 67.2016 32.937H78.0612C80.2331 29.6347 81.4849 25.7249 81.4849 21.5399C81.4814 9.66397 71.4064 0.0395508 58.9704 0.0395508ZM135.162 8.24158V13.9884H149.128V20.6608H135.162V26.1288H151.115V32.9406H127.348V1.42979H151.115V8.24158H135.162ZM120.865 32.937H113.047V17.1405L106.064 27.9336V27.98H101.721V27.9336L94.6912 17.044L94.7376 32.937H86.9201V1.42621H92.7475L103.892 18.2484L115.037 1.42621H120.865V32.937ZM31.0136 1.42621V32.937H23.2461V21.1218H10.4357V32.9406H2.62175V1.42621H10.4357V14.0777H23.2461V1.42621H31.0136ZM24.5942 60.4629C23.3887 63.3685 20.8709 65.0875 17.358 65.0875C12.226 65.0875 8.66319 61.2885 8.66319 56.0492C8.66319 50.8099 12.226 47.0109 17.358 47.0109C20.8709 47.0109 23.3852 48.7335 24.5942 51.6355H32.8717C31.249 44.4413 25.3395 39.6916 17.4079 39.6916C7.92495 39.6916 0.763672 46.5534 0.763672 56.0492C0.763672 65.5521 7.92851 72.4068 17.4079 72.4068C25.3431 72.4068 31.249 67.6607 32.8717 60.4629H24.5942ZM170.673 47.2896H161.65V71.8064H153.879V47.2896H144.863V40.2956H170.669V47.2896H170.673ZM132.926 71.8064H140.744V40.292H132.926V71.8064ZM128.625 55.9599C128.625 65.3162 121.553 71.8064 111.66 71.8064H99.0315V40.2956H111.66C121.553 40.2956 128.625 46.7357 128.625 55.9599ZM120.719 55.9599C120.719 51.0922 116.792 47.3397 111.66 47.3397H106.849V64.7587H111.66C116.788 64.7587 120.719 60.9633 120.719 55.9599ZM77.8258 47.1074V52.8506H91.7918V59.5266H77.8258V64.991H93.7782V71.8064H70.0119V40.2956H93.7782V47.1074H77.8258ZM57.0767 71.8064L51.1137 62.6751H45.1472V71.8064H37.3297V40.2956H51.0638C58.8813 40.2956 64.106 44.5592 64.106 51.371C64.106 55.4988 62.116 58.8297 58.7886 60.7774L66.1852 71.8064H57.0767ZM45.1472 55.6311H50.9283C53.9347 55.6311 56.2921 53.9656 56.2921 51.3674C56.2921 48.8193 53.9347 47.1967 50.9283 47.1967H45.1472V55.6311Z"
    fill="#DB0124"
  />
</svg>
