<svg width="113" height="97" viewBox="0 0 113 97" fill="none" xmlns="http://www.w3.org/2000/svg">
<path id="Vector" d="M11.1087 31.7867H16.0997L47.0801 1.05369C48.3998 -0.35123 50.659 -0.35123 52.071 1.05369C53.3908 2.3668 53.3908 4.61468 52.071 6.0196L26.0817 31.7867H86.8205L60.8311 6.0196C59.5114 4.61468 59.5114 2.3668 60.8311 1.05369C62.2431 -0.35123 64.5023 -0.35123 65.8221 1.05369L96.8024 31.7867H101.793C104.9 31.7867 107.632 33.0052 109.703 35.0667C111.68 37.0336 113 39.8462 113 42.8424C113 47.9947 98.3095 86.598 95.4854 94.5629C95.0157 95.9679 93.696 97 92.284 97H20.6237C19.2117 97 17.892 95.9706 17.4223 94.5629C14.5982 86.598 0 47.9975 0 42.8424C0 39.8434 1.22466 37.0336 3.20147 35.0667C5.27336 33.0052 8.00512 31.7867 11.1115 31.7867H11.1087ZM69.963 80.5082V63.7382C69.963 61.7713 71.4701 60.2718 73.447 60.2718C75.4238 60.2718 77.0258 61.7713 77.0258 63.7382V80.5082C77.0258 82.4751 75.4238 84.0692 73.447 84.0692C71.4701 84.0692 69.963 82.4751 69.963 80.5082ZM35.9686 80.5082V63.7382C35.9686 61.7713 37.4756 60.2718 39.4524 60.2718C41.4292 60.2718 43.0314 61.7713 43.0314 63.7382V80.5082C43.0314 82.4751 41.4292 84.0692 39.4524 84.0692C37.4756 84.0692 35.9686 82.4751 35.9686 80.5082ZM52.9182 80.5082V63.7382C52.9182 61.7713 54.5204 60.2718 56.4972 60.2718C58.474 60.2718 59.9811 61.7713 59.9811 63.7382V80.5082C59.9811 82.4751 58.3789 84.0692 56.4972 84.0692C54.5204 84.0692 52.9182 82.4751 52.9182 80.5082ZM8.18967 46.1224H104.805C105.557 43.8745 106.689 41.9995 104.71 40.0326C103.958 39.2842 102.92 38.814 101.791 38.814H11.1087C9.97913 38.814 8.94181 39.2814 8.18967 40.0326C6.21286 41.9995 7.34246 43.8745 8.18967 46.1224ZM102.358 53.1498H10.5439L23.2577 89.9726H89.6445L102.358 53.1498Z" fill="url(#paint0_linear_113_10084)"/>
<defs>
<linearGradient id="paint0_linear_113_10084" x1="0.00106022" y1="48.5228" x2="113.004" y2="48.5228" gradientUnits="userSpaceOnUse">
<stop stop-color="#FF8452"/>
<stop offset="0.333333" stop-color="#C45AC1"/>
<stop offset="0.666667" stop-color="#7975EB"/>
<stop offset="1" stop-color="#42AAFF"/>
</linearGradient>
</defs>
</svg>
