<svg width="112" height="95" viewBox="0 0 112 95" fill="none" xmlns="http://www.w3.org/2000/svg">
<path id="Vector" d="M26.7869 59.7287C31.6393 59.7287 36.0262 61.7032 39.1993 64.9011C41.0671 66.7835 42.4666 69.1351 43.4005 71.6739H67.3857C67.6656 70.7326 68.0397 69.8864 68.5053 69.0401V10.2527C68.5053 8.5602 67.1058 7.05483 65.3322 7.05483H10.1733C8.39965 7.05483 7.00017 8.5602 7.00017 10.2527V68.476C7.00017 70.2634 8.39965 71.6739 10.1733 71.6739H10.2675C11.1072 69.1351 12.6009 66.7835 14.4687 64.9011C17.6418 61.7032 22.0287 59.7287 26.7897 59.7287H26.7869ZM44.2402 78.7287C43.9603 83.0549 42.0925 87.0068 39.1993 89.8276C36.0262 93.0255 31.6393 95 26.7869 95C21.9344 95 17.6418 93.0255 14.4659 89.8276C11.5727 86.9118 9.70491 83.0549 9.33356 78.7287C4.10699 78.2595 0 73.8383 0 68.476V10.2527C0 4.60827 4.57256 0 10.1733 0H65.3322C70.9329 0 75.5054 4.70323 75.5054 10.2527V21.5387H88.3862C93.9869 21.5387 112 40.8208 112 46.3703V68.4732C112 74.1176 107.427 78.7259 101.827 78.7259H101.361C101.081 83.0521 99.122 87.004 96.3203 89.8248C93.1472 93.0227 88.7603 94.9972 83.9079 94.9972C79.0554 94.9972 74.7627 93.0227 71.5869 89.8248C68.6937 87.004 66.8259 83.0521 66.4545 78.7259H44.243L44.2402 78.7287ZM100.424 71.6739H101.824C103.598 71.6739 104.997 70.2634 104.997 68.476V46.3731C104.997 44.6806 90.157 28.5964 88.3834 28.5964H75.5027V61.8932C78.0217 60.5749 80.8235 59.7287 83.9023 59.7287C88.7548 59.7287 93.1416 61.7032 96.3147 64.9011C98.1825 66.7835 99.582 69.1351 100.422 71.6739H100.424ZM88.6661 45.996H95.7605C97.7197 45.996 99.3077 47.5014 99.3077 49.476C99.3077 51.4506 97.7197 53.0509 95.7605 53.0509H85.1217C83.1624 53.0509 81.6687 51.4506 81.6687 49.476V38.7541C81.6687 36.7795 83.1624 35.2742 85.1217 35.2742C87.0809 35.2742 88.6689 36.7795 88.6689 38.7541V45.996H88.6661ZM91.3736 69.8864C89.4143 68.004 86.801 66.7835 83.9079 66.7835C81.0147 66.7835 78.4014 68.0068 76.5336 69.8864C74.5743 71.861 73.4547 74.4946 73.4547 77.4104C73.4547 80.3262 74.5743 82.9599 76.4421 84.8423C78.4014 86.8168 81.0147 87.9452 83.9079 87.9452C86.801 87.9452 89.4143 86.8168 91.3736 84.8423C93.2414 82.9599 94.4524 80.3262 94.4524 77.4104C94.4524 74.4946 93.2386 71.861 91.3736 69.8864ZM34.2554 69.8864C32.3876 68.004 29.7743 66.7835 26.7897 66.7835C23.805 66.7835 21.2832 68.0068 19.4154 69.8864C17.4561 71.861 16.3365 74.4946 16.3365 77.4104C16.3365 80.3262 17.4561 82.9599 19.4154 84.8423C21.2832 86.8168 23.8965 87.9452 26.7897 87.9452C29.6828 87.9452 32.3904 86.8168 34.2554 84.8423C36.1232 82.9599 37.3343 80.3262 37.3343 77.4104C37.3343 74.4946 36.1204 71.861 34.2554 69.8864Z" fill="url(#paint0_linear_113_10088)"/>
<defs>
<linearGradient id="paint0_linear_113_10088" x1="0.00105084" y1="47.5224" x2="112.004" y2="47.5224" gradientUnits="userSpaceOnUse">
<stop stop-color="#FF8452"/>
<stop offset="0.333333" stop-color="#C45AC1"/>
<stop offset="0.666667" stop-color="#7975EB"/>
<stop offset="1" stop-color="#42AAFF"/>
</linearGradient>
</defs>
</svg>
