<svg width="87" height="92" viewBox="0 0 87 92" fill="none" xmlns="http://www.w3.org/2000/svg">
<path id="Vector" fill-rule="evenodd" clip-rule="evenodd" d="M50.3351 80.888C49.5919 80.9822 48.752 80.7938 48.1028 80.3283C46.5197 79.2088 46.0556 77.0612 47.1717 75.4761C47.9149 74.3566 49.125 73.8883 50.3351 73.9825C53.5924 73.8883 56.7558 73.9825 59.455 73.9825C68.6662 74.1682 71.4593 74.1682 72.2025 69.5016C69.5972 69.6873 66.3399 69.5959 62.2455 69.5016H53.2195C52.4763 69.5016 51.6364 69.316 50.9871 68.8477C49.404 67.8224 48.9399 65.5806 50.0561 63.9955C50.7992 62.9702 52.0094 62.4077 53.2195 62.5019C56.568 62.5019 59.6402 62.5019 62.3366 62.5961C71.8268 62.6903 74.526 62.7818 75.178 57.6497L56.0099 57.4641C55.2667 57.4641 54.5207 57.2784 53.7776 56.8101C52.1945 55.7848 51.8243 53.543 52.8465 51.9579C53.5897 50.8384 54.8937 50.3701 56.1038 50.4643C61.6874 50.4643 67.3621 50.5585 73.0369 50.5585H73.7801C81.4109 50.3729 80.6649 42.7191 74.6172 42.345C62.6129 41.7853 39.8172 45.3323 44.5636 29.9334C45.5859 26.2949 47.821 22.4681 49.8682 20.2263C51.3573 18.6384 52.4735 17.239 53.4045 15.9339C55.3578 13.2265 56.2889 11.1731 56.568 9.58809C56.6619 8.65423 56.474 8.00026 56.0099 7.62893L55.8247 7.44326C52.5674 5.11001 45.1245 13.4149 39.9139 19.201C34.0513 25.641 25.4922 35.6252 11.3495 41.7853C6.324 44.0243 6.88209 45.0524 6.97602 53.1717L7.06995 59.0519C7.06995 68.759 7.34901 74.545 7.81315 74.6365C18.6073 75.2904 23.445 78.0892 27.4455 79.303L27.7245 79.3972C31.5399 80.6109 37.7727 82.1045 43.8205 83.3155C48.6581 84.2493 53.3106 84.9033 56.3828 84.9033C57.3139 84.9033 57.872 84.9033 58.4301 84.9976H60.5712C64.0136 84.9976 67.55 84.7176 67.55 81.2649V80.985C65.2237 81.0792 62.5245 80.985 59.27 80.985C56.8498 80.985 53.9654 80.8908 50.3379 80.8908L50.3351 80.888ZM82.1568 55.9704C82.1568 56.0647 82.2508 56.1561 82.2508 56.1561C82.2508 56.3418 82.1568 58.0238 82.1568 58.2095C81.7839 62.876 81.1346 65.5833 79.3664 67.2626C79.1813 74.9163 78.1563 78.3691 74.5288 79.8627V81.2621C74.4349 91.0607 67.4561 92.0888 60.48 91.9945C59.4578 91.9945 58.897 91.9945 58.2477 91.9003H56.2944C52.852 91.9003 47.7353 91.1549 42.5247 90.1268C36.2919 88.9131 29.7773 87.328 25.6828 86.1143L25.4038 86.0201C21.5884 84.8063 16.1926 82.1932 6.23558 81.5392C0.187854 81.1652 0.18786 72.9544 0.0939251 59.0464L0 53.1661C0 46.1664 4.08393e-06 42.4337 1.48914 39.8206C2.32627 38.327 3.25731 37.3017 4.65251 36.8334C18.331 32.0726 25.401 24.793 34.7061 14.5289C41.6848 6.78374 51.548 -4.32276 59.922 1.74314V1.83736C60.295 2.02303 60.574 2.3029 60.7591 2.49134C62.8063 4.35905 63.8285 7.06362 63.4583 10.4249C63.0853 13.1323 61.7841 16.3052 59.0848 20.0378C57.8747 21.6257 56.5735 23.3049 54.9904 24.9842C50.1528 30.2105 48.9427 35.4367 57.8747 35.4367C63.8285 35.3425 71.0864 35.8108 76.2058 36.462C81.7894 37.116 87 39.1694 87 46.449C86.721 51.7695 84.8588 54.5683 82.1624 55.9677L82.1568 55.9704Z" fill="url(#paint0_linear_113_10096)"/>
<defs>
<linearGradient id="paint0_linear_113_10096" x1="0.000816274" y1="46.0217" x2="87.0034" y2="46.0217" gradientUnits="userSpaceOnUse">
<stop stop-color="#FF8452"/>
<stop offset="0.333333" stop-color="#C45AC1"/>
<stop offset="0.666667" stop-color="#7975EB"/>
<stop offset="1" stop-color="#42AAFF"/>
</linearGradient>
</defs>
</svg>
