<svg width="112" height="113" viewBox="0 0 112 113" fill="none" xmlns="http://www.w3.org/2000/svg">
<path id="Vector" d="M56 0C71.7743 0 80.6398 7.65266 84.467 18.0095C86.0549 22.3955 86.7062 27.3412 86.5205 32.2869C86.3348 37.2326 85.4009 42.1783 83.7215 46.8441C79.0546 60.6533 68.6012 72.2265 56 72.2265C43.3988 72.2265 32.9454 60.656 28.1871 46.8441C26.5991 42.1783 25.6679 37.2326 25.4795 32.2869C25.2938 27.3412 25.9451 22.3955 27.533 18.0095C31.266 7.65266 40.2257 0 56 0ZM79.5202 66.4385C79.8943 66.4385 80.2656 66.4385 80.5456 66.6241L80.6398 66.5299L81.6652 66.904C93.8922 71.1043 112 77.1694 112 92.3777C112 101.335 105.094 106.655 93.9864 109.548C84.0928 112.16 70.7462 113 56 113C41.2538 113 27.8129 112.255 18.0136 109.642C6.90612 106.749 0 101.432 0 92.3805C0 77.2636 17.7337 71.1043 29.7723 66.9067L30.3321 66.7211C30.7062 66.5355 31.266 66.4413 31.7316 66.4413C33.6909 66.4413 35.2789 67.9347 35.2789 69.8935C35.2789 71.5726 34.1592 72.9718 32.5713 73.3458L32.0115 73.5315C21.9322 76.9837 6.99757 82.2093 6.99757 92.3805C6.99757 97.5118 11.8502 100.778 19.7844 102.832C28.9298 105.259 41.7166 106.004 55.9972 106.004C70.2778 106.004 83.0647 105.259 92.21 102.832C100.144 100.778 104.997 97.5118 104.997 92.3805C104.997 82.2093 89.6909 76.9837 79.4232 73.5315L78.8634 73.3458C77.1839 73.066 75.9701 71.6668 75.9701 69.8935C75.9701 67.9347 77.5581 66.4413 79.5174 66.4413L79.5202 66.4385ZM77.9322 20.4339C75.0389 12.6898 68.2243 6.996 56 6.996C43.7757 6.996 36.8668 12.687 34.0678 20.4339C32.7625 23.9804 32.2942 27.8981 32.3884 32.0043C32.5741 36.2047 33.4138 40.4965 34.8161 44.6026C38.6432 55.799 46.669 65.2249 56.0028 65.2249C65.3366 65.2249 73.2708 55.799 77.0953 44.6026C78.589 40.4965 79.4287 36.2047 79.5229 32.0043C79.7086 27.8981 79.1488 23.9804 77.935 20.4339H77.9322Z" fill="url(#paint0_linear_113_10092)"/>
<defs>
<linearGradient id="paint0_linear_113_10092" x1="0.00105084" y1="56.5266" x2="112.004" y2="56.5266" gradientUnits="userSpaceOnUse">
<stop stop-color="#FF8452"/>
<stop offset="0.333333" stop-color="#C45AC1"/>
<stop offset="0.666667" stop-color="#7975EB"/>
<stop offset="1" stop-color="#42AAFF"/>
</linearGradient>
</defs>
</svg>
