<svg width="113" height="111" viewBox="0 0 113 111" fill="none" xmlns="http://www.w3.org/2000/svg">
<path id="Vector" d="M84.3698 0C76.4594 0 69.3011 3.14577 64.1226 8.23396C60.8258 11.4732 58.3792 15.4514 56.9643 19.9846V20.078C56.8692 20.3555 56.777 20.7264 56.777 21.0039C56.777 22.9463 58.3792 24.5206 60.3561 24.5206C61.8632 24.5206 63.088 23.5947 63.6528 22.3007C63.6528 22.2073 63.7479 22.0232 63.7479 21.9298L63.8429 21.6523C64.8775 18.4131 66.7622 15.4541 69.1166 13.1408C73.0704 9.25325 78.4391 6.9427 84.3726 6.9427C90.3061 6.9427 95.7671 9.25599 99.6286 13.1408C103.49 16.935 105.937 22.2073 105.937 28.0373C105.937 33.8673 103.487 39.2329 99.6286 43.0271C96.9918 45.6179 93.6028 47.5603 89.9286 48.5796C89.7413 48.5796 89.4589 48.673 89.2687 48.7637C87.7616 49.1346 86.727 50.4286 86.727 52.0935C86.727 53.9453 88.2341 55.5168 90.211 55.5168C90.6808 55.5168 91.1533 55.4234 91.6231 55.3327C96.6143 54.036 101.041 51.4451 104.62 47.9312C109.798 42.843 113 35.8097 113 28.0373C113 20.2649 109.798 13.3249 104.62 8.23671C99.4413 3.14852 92.283 0.00275009 84.3726 0.00275009L84.3698 0ZM26.36 47.8378C25.8902 48.3928 25.6078 49.2252 25.6078 49.967C25.6078 51.9095 27.2101 53.4837 29.187 53.4837C30.4117 53.4837 31.6364 52.7447 32.2012 51.7254C34.0859 49.0412 35.8727 46.4504 37.3798 44.2305C42.4661 36.5515 44.0655 34.2382 48.3968 36.274C46.7946 38.3098 44.9127 40.994 42.6534 44.4173C41.2413 46.4531 39.6391 48.8598 37.5671 51.8188C37.0974 52.3738 36.815 53.2062 36.815 54.0387C36.815 55.8904 38.4172 57.462 40.299 57.462C41.6188 57.462 42.7485 56.8136 43.4056 55.7036C45.2902 53.0194 47.077 50.4286 48.4919 48.2087C53.8605 40.2522 55.3677 38.123 59.9814 40.4363L49.2468 56.2586C48.7771 56.8136 48.4947 57.5554 48.4947 58.3878C48.4947 60.3303 50.0969 61.9045 51.9787 61.9045C53.2985 61.9045 54.5205 61.1655 55.0853 60.0527C60.9237 51.4479 67.0446 42.843 72.6957 34.1447C73.638 32.6639 74.8627 30.7215 76.1797 29.2406C77.8742 27.2982 80.0413 25.8173 82.1133 27.6663C83.6204 28.8697 84.0902 30.0731 83.9028 31.3671C83.5253 33.1255 82.2083 35.3454 80.3237 37.8455C79.194 39.4198 76.0847 43.953 72.6006 49.0412C67.8918 55.8877 62.5232 63.7535 60.4512 66.3443C59.1314 68.1961 58.3792 69.9517 58.0968 71.5259C57.8144 74.1167 58.6616 76.2459 60.3561 77.9109C61.7682 79.2983 63.5577 80.3176 65.6297 80.9632C69.3011 82.1666 73.7275 82.5375 76.7418 82.0732C78.9088 81.7957 80.7907 81.6116 82.3929 81.5182C85.6896 81.4248 88.044 81.7957 89.456 82.5348C90.3033 82.9963 90.6808 83.4607 90.7759 84.0156L90.8709 84.2931C90.966 88.2714 79.7589 89.7522 71.9435 90.8621C63.1858 91.9721 50.0018 93.453 36.8178 101.687C32.109 104.555 31.6392 103.539 24.9535 98.9121L19.9623 95.5822C11.9568 90.2165 7.24804 86.6998 7.43818 86.2355C12.9942 76.9823 13.464 71.5232 14.6887 67.5449L14.7838 67.174C15.9134 63.4733 18.2678 57.4592 20.7173 51.9067V51.8133C22.6942 47.3707 24.7662 43.2084 26.4607 40.6176C27.0255 39.8786 27.3079 39.4143 27.6854 38.9527L28.8151 37.1944C30.792 34.2327 33.0541 31.5512 35.9733 33.4936L36.1606 33.587C34.7486 35.4388 33.2414 37.7521 31.4519 40.4336C30.0398 42.4694 28.4376 44.8761 26.3656 47.8351L26.36 47.8378ZM63.9352 34.6063C59.6039 32.0155 56.777 30.999 54.3303 31.5539C47.832 27.4823 44.3479 26.3723 41.0512 28.5016L39.8265 27.7625C31.6336 22.3969 26.8298 27.5784 22.971 33.315C22.4062 34.1475 22.0287 34.7025 21.7463 35.1668L20.6166 36.8317C18.6397 39.7 16.3776 44.2332 14.2133 49.1373C11.6716 54.8739 9.31723 61.1654 8.09249 65.2371L7.99742 65.5146C6.77269 69.3088 5.92544 75.2294 0.746895 83.7436C-2.35967 88.9252 4.51336 93.5519 16.0029 101.324L20.899 104.654C26.6424 108.632 29.8441 110.762 32.8583 110.946C34.5528 111.13 35.9649 110.852 37.0974 110.02C48.9644 101.415 58.944 99.6566 72.883 97.7142C83.2429 96.3268 98.2165 94.2909 97.8391 84.1118C97.8391 83.6502 97.839 83.2793 97.744 83.0018C97.3665 80.227 95.7671 77.9136 92.6577 76.4328C90.2082 75.136 86.8193 74.4904 82.2055 74.581C80.2286 74.6744 78.0616 74.8585 75.7072 75.2294C73.6352 75.5069 70.5286 75.3228 67.9841 74.4904C66.8545 74.1195 65.9121 73.6579 65.4424 73.1029C65.16 72.8254 65.0649 72.6414 65.16 72.3639C65.16 71.9023 65.4424 71.3474 66.1023 70.5121C68.3616 67.6438 73.7303 59.778 78.4391 52.8381C81.7358 48.0274 84.7473 43.6782 86.0671 41.9199C88.5165 38.59 90.3061 35.5349 90.7759 32.4826C91.4358 28.7818 90.3061 25.4492 86.727 22.3968C80.3237 16.9378 74.955 20.0835 70.9061 24.7101C69.2116 26.6526 67.7996 28.7818 66.7622 30.4467L66.1973 31.1858L63.938 34.609L63.9352 34.6063Z" fill="url(#paint0_linear_113_10080)"/>
<defs>
<linearGradient id="paint0_linear_113_10080" x1="0.00106022" y1="55.5261" x2="113.004" y2="55.5261" gradientUnits="userSpaceOnUse">
<stop stop-color="#FF8452"/>
<stop offset="0.333333" stop-color="#C45AC1"/>
<stop offset="0.666667" stop-color="#7975EB"/>
<stop offset="1" stop-color="#42AAFF"/>
</linearGradient>
</defs>
</svg>
